<svg xmlns="http://www.w3.org/2000/svg" width="12" height="12" viewBox="0 0 12 12">
  <defs>
    <style>
      .cls-1 {
        fill: #8998c2;
        fill-rule: evenodd;
      }
    </style>
  </defs>
  <path id="LinkedIn_Icon" data-name="LinkedIn Icon" class="cls-1" d="M1500.73,30.006V21.912h-2.57v8.094h2.57Zm-1.29-9.2a1.4,1.4,0,1,0-1.43-1.4,1.356,1.356,0,0,0,1.42,1.4h0.01Zm2.71,9.2h2.58V25.486a1.872,1.872,0,0,1,.08-0.656,1.422,1.422,0,0,1,1.32-.984c0.93,0,1.3.743,1.3,1.831v4.33h2.58V25.364c0-2.487-1.27-3.643-2.97-3.643a2.553,2.553,0,0,0-2.33,1.363h0.02V21.912h-2.58c0.04,0.759,0,8.094,0,8.094h0Z" transform="translate(-1498 -18)"/>
</svg>
