<svg xmlns="http://www.w3.org/2000/svg" width="13" height="11" viewBox="0 0 13 11">
  <defs>
    <style>
      .cls-1 {
        fill: #8998c2;
        fill-rule: evenodd;
      }
    </style>
  </defs>
  <path id="Twitter_Icon" data-name="Twitter Icon" class="cls-1" d="M1476,20.3a5.238,5.238,0,0,1-1.53.437,2.778,2.778,0,0,0,1.17-1.536,5.338,5.338,0,0,1-1.69.672A2.621,2.621,0,0,0,1472,19a2.727,2.727,0,0,0-2.67,2.777,3.294,3.294,0,0,0,.07.633,7.464,7.464,0,0,1-5.49-2.9,2.865,2.865,0,0,0,.82,3.707,2.614,2.614,0,0,1-1.21-.346V22.9a2.752,2.752,0,0,0,2.14,2.723,2.549,2.549,0,0,1-.7.1,2.472,2.472,0,0,1-.5-0.05,2.683,2.683,0,0,0,2.49,1.928,5.2,5.2,0,0,1-3.31,1.188,5.129,5.129,0,0,1-.64-0.037A7.336,7.336,0,0,0,1467.09,30a7.712,7.712,0,0,0,7.59-7.9c0-.12-0.01-0.24-0.01-0.358A5.647,5.647,0,0,0,1476,20.3h0Z" transform="translate(-1463 -19)"/>
</svg>
