<svg xmlns="http://www.w3.org/2000/svg" width="13" height="13" viewBox="0 0 13 13">
  <defs>
    <style>
      .cls-1 {
        fill: #8998c2;
        fill-rule: evenodd;
      }
    </style>
  </defs>
  <path id="Instagram_Icon" data-name="Instagram Icon" class="cls-1" d="M1538.49,21.151a3.25,3.25,0,0,1,1.67.449,3.368,3.368,0,0,1,1.22,1.22,3.316,3.316,0,0,1,0,3.336,3.366,3.366,0,0,1-1.22,1.219,3.246,3.246,0,0,1-1.67.45,3.21,3.21,0,0,1-1.66-.45,3.291,3.291,0,0,1-1.22-1.219,3.316,3.316,0,0,1,0-3.336,3.293,3.293,0,0,1,1.22-1.22A3.215,3.215,0,0,1,1538.49,21.151Zm0,5.513a2.176,2.176,0,0,0,0-4.353A2.176,2.176,0,0,0,1538.49,26.664ZM1542.76,21a0.784,0.784,0,1,0-.78.785,0.693,0.693,0,0,0,.53-0.232A0.889,0.889,0,0,0,1542.76,21Zm2.2,0.785q0.03,0.813.03,2.7c0,1.258-.01,2.163-0.04,2.713a5.33,5.33,0,0,1-.25,1.437,3.415,3.415,0,0,1-.79,1.262,3.372,3.372,0,0,1-1.27.8,5.441,5.441,0,0,1-1.43.247c-0.55.029-1.46,0.043-2.72,0.043s-2.16-.015-2.71-0.043a4.827,4.827,0,0,1-1.44-.275,3.133,3.133,0,0,1-1.26-.769,3.438,3.438,0,0,1-.8-1.262,5.777,5.777,0,0,1-.24-1.437c-0.03-.55-0.05-1.455-0.05-2.713s0.02-2.162.05-2.713a5.781,5.781,0,0,1,.24-1.437,3.421,3.421,0,0,1,2.06-2.06,5.541,5.541,0,0,1,1.44-.246c0.55-.029,1.46-0.043,2.71-0.043s2.17,0.014,2.72.043a5.386,5.386,0,0,1,1.43.246,3.355,3.355,0,0,1,2.06,2.06A5.35,5.35,0,0,1,1544.96,21.789Zm-1.39,6.529a5.609,5.609,0,0,0,.23-1.567q0.03-.638.03-1.8V24.023q0-1.189-.03-1.8a5.364,5.364,0,0,0-.23-1.565,2.09,2.09,0,0,0-1.25-1.249,5.832,5.832,0,0,0-1.56-.232q-0.645-.029-1.8-0.028h-0.93q-1.155,0-1.8.028a6.15,6.15,0,0,0-1.57.232,2.074,2.074,0,0,0-1.24,1.249,5.646,5.646,0,0,0-.24,1.565q-0.03.639-.03,1.8v0.929q0,1.16.03,1.8a5.925,5.925,0,0,0,.24,1.567,2.188,2.188,0,0,0,1.24,1.249,6.071,6.071,0,0,0,1.57.23q0.645,0.03,1.8.03h0.93q1.185,0,1.8-.03a5.761,5.761,0,0,0,1.56-.23A2.2,2.2,0,0,0,1543.57,28.318Z" transform="translate(-1532 -18)"/>
</svg>
